<svg id="Ebene_1" data-name="Ebene 1" xmlns="http://www.w3.org/2000/svg" viewBox="0 0 94.23 16.51"><defs><style>.cls-1{fill:#8e231d}</style></defs><path class="cls-1" d="M92.6 101.26a1.85 1.85 0 0 1-1-.41.56.56 0 0 1-.18-.28h.36a9.47 9.47 0 0 0 1.87.08c.31 0 .71-.05.9-.08h.36a.75.75 0 0 1-.21.27 2.26 2.26 0 0 1-1.09.42 2.71 2.71 0 0 1-1 0zm-.3-.86a3.73 3.73 0 0 1-1-.19 3.1 3.1 0 0 1-.15-.55h.3a7.71 7.71 0 0 0 1.68.14 8.08 8.08 0 0 0 1.71-.14h.27a.49.49 0 0 1 0 .14 1.88 1.88 0 0 0-.05.27.35.35 0 0 1 0 .15 5.82 5.82 0 0 1-1 .17 11 11 0 0 1-1.68 0zm0-.85a10.47 10.47 0 0 1-1.09-.18c-.07 0-.07 0-.1-.27s-.11-.35-.11-.48a1.51 1.51 0 0 1 0-.24l.35.08a6.64 6.64 0 0 0 2.85.1 6.81 6.81 0 0 0 1-.25h.12s0 .64-.07.93 0 .17-.48.26a9.68 9.68 0 0 1-2.43.1zm-1.6-1.84a7.42 7.42 0 0 1-1.85-1.07 6.69 6.69 0 0 1-2.29-3.78 5.66 5.66 0 0 1-.13-1.13 6.5 6.5 0 0 1 1.09-3.85A6.6 6.6 0 0 1 92.09 85 9 9 0 0 1 94 85a6.6 6.6 0 0 1 4.55 2.88 6.6 6.6 0 0 1-.83 8.33 6.72 6.72 0 0 1-1.61 1.18 3.57 3.57 0 0 1-.74.32 1.22 1.22 0 0 1 0-.26 4.07 4.07 0 0 1 1.08-2.37 5.11 5.11 0 0 0 1.21-2.55A5.25 5.25 0 0 0 97.6 91a4.66 4.66 0 0 0-9.15.06 5.35 5.35 0 0 0 0 1.44 5.15 5.15 0 0 0 1.09 2.45c.39.46.46.55.62.77A5 5 0 0 1 91 97.6a.29.29 0 0 1 0 .22l-.29-.1zm0 0" transform="translate(-86.43 -84.94)"/><path d="M105.76 95.49a3.76 3.76 0 0 0 1.17.16q1.44 0 1.44-1.87 0-1.53-1.25-1.53a3 3 0 0 0-1.35.3v2.95zm-1.47-6.56h1.47v2.38a3.45 3.45 0 0 1 1.35-.28q2.7 0 2.7 2.78 0 3-2.95 3a15.2 15.2 0 0 1-2.57-.24v-7.64zm6.55 7.9V91H112l.18.74a2.3 2.3 0 0 1 1.61-.74v1.18a1.92 1.92 0 0 0-1.46.74v3.89h-1.46zm5.22-7.9v1.16h-1.46v-1.16h1.46zm0 2.1v5.8h-1.46V91h1.46zm5.27 1.32a3.6 3.6 0 0 0-1.13-.13 1.44 1.44 0 0 0-1.57 1.68q0 1.62 1.31 1.62a3.1 3.1 0 0 0 1.4-.3v-2.88zm1.46 4.49q0 2.1-3.11 2.1a6 6 0 0 1-1.9-.28v-1.17a6.2 6.2 0 0 0 1.91.28c1.09 0 1.63-.44 1.63-1.33a3.5 3.5 0 0 1-1.4.28q-2.75 0-2.75-2.82t3.18-2.9a15.44 15.44 0 0 1 2.44.24v5.57zm1.38 0v-7.9h1.46v2.73a3.38 3.38 0 0 1 2-.63q2 0 2 2.16v3.64h-1.46v-3.67a.85.85 0 0 0-1-1 2.34 2.34 0 0 0-1.56.74v3.89h-1.46zm6.83-6.75h1.08l.22.91h1.35v1.16h-1.19v2.67a.67.67 0 0 0 .7.81h.49v1.16h-1.19a1.34 1.34 0 0 1-1.46-1.53v-5.18zm0 0" transform="translate(-86.43 -84.94)" fill="#1e1f1d"/><path class="cls-1" d="M134.89 96.55v-.88a6.17 6.17 0 0 0 2 .33c.93 0 1.39-.28 1.39-.83a.75.75 0 0 0-.91-.78h-.94a1.57 1.57 0 0 1-1.83-1.71Q134.62 91 137 91a7.25 7.25 0 0 1 2 .28v.88a6.12 6.12 0 0 0-2-.33q-1.45 0-1.45.83a.72.72 0 0 0 .86.77h.94c1.29 0 1.93.57 1.93 1.71s-.8 1.66-2.41 1.66a7.24 7.24 0 0 1-2-.28zm8.3-.55q1.74 0 1.74-2.1t-1.74-2.05q-1.74 0-1.74 2.05t1.75 2.1zm-2.76-2.07q0-2.9 2.76-2.9t2.76 2.9q0 2.89-2.76 2.9t-2.76-2.9zm7.93-5v7.9h-1v-7.9h1zM155 91v5.8h-.7l-.18-.74a3.67 3.67 0 0 1-2.12.74q-2 0-2-2.16V91h1v3.66a1.14 1.14 0 0 0 1.32 1.34 2.44 2.44 0 0 0 1.67-.74V91h1zm1.65-.94h.64l.24.94h1.35v.83h-1.19v3.33a.67.67 0 0 0 .7.81h.49v.83h-.75a1.34 1.34 0 0 1-1.46-1.56v-5.15zm4.62-1.16v.83h-1v-.8h1zm0 2.1v5.8h-1V91h1zm4.14 5q1.74 0 1.74-2.1t-1.74-2.05q-1.74 0-1.74 2.05t1.74 2.1zm-2.76-2.07q0-2.9 2.76-2.9t2.76 2.9q0 2.89-2.76 2.9t-2.76-2.9zm6.91 2.9V91h.69l.18.74a3.67 3.67 0 0 1 2.12-.74q2 0 2 2.16v3.64h-1v-3.63a1.14 1.14 0 0 0-1.29-1.29 2.43 2.43 0 0 0-1.67.73v4.22h-1zm6.65-.28v-.88a6.17 6.17 0 0 0 2 .33c.92 0 1.39-.28 1.39-.83a.75.75 0 0 0-.91-.78h-.94a1.56 1.56 0 0 1-1.75-1.7q0-1.69 2.38-1.69a7.26 7.26 0 0 1 2 .28v.88a6.13 6.13 0 0 0-2-.33q-1.45 0-1.45.83a.72.72 0 0 0 .86.77h.94c1.29 0 1.94.57 1.94 1.71s-.8 1.66-2.41 1.66a7.23 7.23 0 0 1-2-.28zm0 0" transform="translate(-86.43 -84.94)"/><path d="M134.93 99.66h.18l.39 1.58.57-1.58h.13l.58 1.54.39-1.54h.18l-.47 1.79h-.18l-.57-1.53-.56 1.53h-.19zm4.78.93h-1.35a.68.68 0 0 0 .83.7 2.26 2.26 0 0 0 .48-.05v.15a2.87 2.87 0 0 1-.58.05.81.81 0 0 1-.91-.92.77.77 0 0 1 .86-.88c.53.02.75.36.67.95zm-1.35-.16h1.18a.5.5 0 0 0-.55-.63.57.57 0 0 0-.63.63zm2.41-1.43h.18v.73a2.44 2.44 0 0 1 .57-.09.76.76 0 0 1 .85.86.81.81 0 0 1-.89.93 3.21 3.21 0 0 1-.71-.07V99zm.18 2.23a3.12 3.12 0 0 0 .51 0 .67.67 0 0 0 .74-.79.6.6 0 0 0-.68-.68 2.13 2.13 0 0 0-.57.09v1.32zm2.57.01v.21h-.23v-.21h.23zm1 .21v-1.79h.13v.23a1.32 1.32 0 0 1 .7-.23.46.46 0 0 1 .45.25 1.09 1.09 0 0 1 .66-.25.51.51 0 0 1 .57.6v1.2h-.18v-1.2a.38.38 0 0 0-.42-.44.77.77 0 0 0-.56.23v1.4h-.17v-1.23a.35.35 0 0 0-.39-.41.94.94 0 0 0-.61.23v1.4h-.18zm3.57-.9a.86.86 0 1 1 .85.9.78.78 0 0 1-.85-.9zm.85.74a.63.63 0 0 0 .67-.75.68.68 0 1 0-1.35 0 .63.63 0 0 0 .68.76zM150.8 99h.2v.73a2.44 2.44 0 0 1 .57-.09.76.76 0 0 1 .85.86.81.81 0 0 1-.89.93 3.21 3.21 0 0 1-.71-.07V99zm.18 2.23a3.11 3.11 0 0 0 .51 0 .67.67 0 0 0 .74-.79.6.6 0 0 0-.68-.68 2.13 2.13 0 0 0-.57.09v1.32zm2.6-2.23v.17h-.18V99h.18zm0 .65v1.79h-.18v-1.78h.18zm1.27-.65v2.44h-.18V99h.18zm2.53 1.59H156a.68.68 0 0 0 .83.7 2.25 2.25 0 0 0 .48-.05v.15a2.86 2.86 0 0 1-.58.05.81.81 0 0 1-.91-.92.77.77 0 0 1 .86-.88q.82.02.7.95zm-1.34-.16h1.18a.5.5 0 0 0-.55-.63.57.57 0 0 0-.67.63zm2.54.81v.21h-.23v-.21h.23zm1.18-2.24v.17h-.18V99h.18zm0 .65v1.79h-.18v-1.78h.18zm1.09 1.8v-1.79h.15v.23a1.77 1.77 0 0 1 .78-.23.51.51 0 0 1 .59.57v1.23h-.18v-1.23a.38.38 0 0 0-.45-.4 1.4 1.4 0 0 0-.7.23v1.41h-.18zm2.6 0v-1.79h.13v.23a1.77 1.77 0 0 1 .78-.23.51.51 0 0 1 .59.57v1.23h-.18v-1.23a.38.38 0 0 0-.45-.4 1.4 1.4 0 0 0-.7.23v1.41h-.18zm2.55-.9a.86.86 0 1 1 .85.9.78.78 0 0 1-.85-.9zm.85.74a.63.63 0 0 0 .67-.75.68.68 0 1 0-1.35 0 .63.63 0 0 0 .65.76zm1.56-1.63h.21l.66 1.64.66-1.64h.21l-.76 1.79h-.21zm2.48 1.25q0-.52.76-.52a5.15 5.15 0 0 1 .57 0v-.22q0-.39-.62-.39a2 2 0 0 0-.57.09v-.13a2 2 0 0 1 .57-.09q.8 0 .8.57v1.22h-.11l-.06-.13a2 2 0 0 1-.67.13.55.55 0 0 1-.67-.53zm.76-.36q-.58 0-.58.36a.4.4 0 0 0 .5.39 1.67 1.67 0 0 0 .66-.14v-.58a4.73 4.73 0 0 0-.58-.04zm1.83-1.18h.11v.29h.45v.15h-.42v1.13c0 .24.09.35.27.35h.15v.15h-.15a.41.41 0 0 1-.45-.48v-1.6zm1.7-.37v.17H175V99h.18zm0 .65v1.79H175v-1.78h.18zm1 .9a.86.86 0 1 1 .85.9.78.78 0 0 1-.85-.9zm.82.75a.63.63 0 0 0 .67-.75.68.68 0 1 0-1.35 0 .63.63 0 0 0 .68.75zm1.89.15v-1.79h.11v.23a1.77 1.77 0 0 1 .78-.23.51.51 0 0 1 .59.57v1.23h-.18v-1.23a.38.38 0 0 0-.45-.4 1.4 1.4 0 0 0-.7.23v1.41h-.18z" transform="translate(-86.43 -84.94)" fill="#404040"/></svg>