<svg id="Ebene_1" data-name="Ebene 1" xmlns="http://www.w3.org/2000/svg" viewBox="0 0 94.23 16.51"><defs><style>.cls-1{fill:#8e231d;}.cls-2{fill:#1e1f1d;}.cls-3{fill:#404040;}</style></defs><title>logo</title><path class="cls-1" d="M92.6,101.26a1.85,1.85,0,0,1-1-.41,0.56,0.56,0,0,1-.18-0.28l0.36,0a9.47,9.47,0,0,0,1.87.08c0.31,0,.71-0.05.9-0.08l0.36,0a0.75,0.75,0,0,1-.21.27,2.26,2.26,0,0,1-1.09.42,2.71,2.71,0,0,1-1,0h0Zm-0.3-.86a3.73,3.73,0,0,1-1-.19,3.1,3.1,0,0,1-.15-0.55l0.3,0a7.71,7.71,0,0,0,1.68.14,8.08,8.08,0,0,0,1.71-.14l0.27,0a0.49,0.49,0,0,1,0,.14,1.88,1.88,0,0,0-.05.27,0.35,0.35,0,0,1,0,.15,5.82,5.82,0,0,1-1,.17,11,11,0,0,1-1.68,0h0Zm0-.85a10.47,10.47,0,0,1-1.09-.18c-0.07,0-.07,0-0.1-0.27S91,98.75,91,98.62a1.51,1.51,0,0,1,0-.24l0.35,0.08a6.64,6.64,0,0,0,2.85.1,6.81,6.81,0,0,0,1-.25l0.12,0s0,0.64-.07.93,0,0.17-.48.26a9.68,9.68,0,0,1-2.43.1h0ZM90.7,97.71a7.42,7.42,0,0,1-1.85-1.07,6.69,6.69,0,0,1-2.29-3.78,5.66,5.66,0,0,1-.13-1.13,6.5,6.5,0,0,1,1.09-3.85A6.6,6.6,0,0,1,92.09,85,9,9,0,0,1,94,85a6.6,6.6,0,0,1,4.55,2.88,6.6,6.6,0,0,1-.83,8.33,6.72,6.72,0,0,1-1.61,1.18,3.57,3.57,0,0,1-.74.32,1.22,1.22,0,0,1,0-.26,4.07,4.07,0,0,1,1.08-2.37,5.11,5.11,0,0,0,1.21-2.55A5.25,5.25,0,0,0,97.6,91a4.66,4.66,0,0,0-9.15.06,5.35,5.35,0,0,0,0,1.44,5.15,5.15,0,0,0,1.09,2.45c0.39,0.46.46,0.55,0.62,0.77A5,5,0,0,1,91,97.6a0.29,0.29,0,0,1,0,.22l-0.29-.1h0Zm0,0" transform="translate(-86.43 -84.94)"/><path class="cls-2" d="M105.76,95.49a3.76,3.76,0,0,0,1.17.16q1.44,0,1.44-1.87,0-1.53-1.25-1.53a3,3,0,0,0-1.35.3v2.95Zm-1.47-6.56h1.47v2.38a3.45,3.45,0,0,1,1.35-.28q2.7,0,2.7,2.78,0,3-2.95,3a15.2,15.2,0,0,1-2.57-.24V88.93Zm6.55,7.9V91H112l0.18,0.74a2.3,2.3,0,0,1,1.61-.74v1.18a1.92,1.92,0,0,0-1.46.74v3.89h-1.46Zm5.22-7.9v1.16h-1.46V88.93h1.46Zm0,2.1v5.8h-1.46V91h1.46Zm5.27,1.32a3.6,3.6,0,0,0-1.13-.13,1.44,1.44,0,0,0-1.57,1.68q0,1.62,1.31,1.62a3.1,3.1,0,0,0,1.4-.3V92.34Zm1.46,4.49q0,2.1-3.11,2.1a6,6,0,0,1-1.9-.28V97.49a6.2,6.2,0,0,0,1.91.28c1.09,0,1.63-.44,1.63-1.33a3.5,3.5,0,0,1-1.4.28q-2.75,0-2.75-2.82T120.35,91a15.44,15.44,0,0,1,2.44.24v5.57Zm1.38,0v-7.9h1.46v2.73a3.38,3.38,0,0,1,2-.63q2,0,2,2.16v3.64h-1.46V93.17a0.85,0.85,0,0,0-1-1,2.34,2.34,0,0,0-1.56.74v3.89h-1.46ZM131,90.09h1.08L132.3,91h1.35v1.16h-1.19v2.67a0.67,0.67,0,0,0,.7.81h0.49v1.16h-1.19A1.34,1.34,0,0,1,131,95.27V90.09Zm0,0" transform="translate(-86.43 -84.94)"/><path class="cls-1" d="M134.89,96.55V95.67a6.17,6.17,0,0,0,2,.33c0.93,0,1.39-.28,1.39-0.83a0.75,0.75,0,0,0-.91-0.78h-0.94a1.57,1.57,0,0,1-1.83-1.71Q134.62,91,137,91a7.25,7.25,0,0,1,2,.28v0.88a6.12,6.12,0,0,0-2-.33q-1.45,0-1.45.83a0.72,0.72,0,0,0,.86.77h0.94c1.29,0,1.93.57,1.93,1.71s-0.8,1.66-2.41,1.66a7.24,7.24,0,0,1-2-.28h0Zm8.3-.55q1.74,0,1.74-2.1t-1.74-2.05q-1.74,0-1.74,2.05T143.2,96h0Zm-2.76-2.07q0-2.9,2.76-2.9t2.76,2.9q0,2.89-2.76,2.9t-2.76-2.9h0Zm7.93-5v7.9h-1v-7.9h1ZM155,91v5.8h-0.7l-0.18-.74a3.67,3.67,0,0,1-2.12.74q-2,0-2-2.16V91h1v3.66A1.14,1.14,0,0,0,152.32,96a2.44,2.44,0,0,0,1.67-.74V91h1Zm1.65-.94h0.64L157.53,91h1.35v0.83h-1.19v3.33a0.67,0.67,0,0,0,.7.81h0.49v0.83h-0.75a1.34,1.34,0,0,1-1.46-1.56V90.09Zm4.62-1.16v0.83h-1V88.93h1Zm0,2.1v5.8h-1V91h1Zm4.14,5q1.74,0,1.74-2.1t-1.74-2.05q-1.74,0-1.74,2.05t1.74,2.1h0Zm-2.76-2.07q0-2.9,2.76-2.9t2.76,2.9q0,2.89-2.76,2.9t-2.76-2.9h0Zm6.91,2.9V91h0.69l0.18,0.74a3.67,3.67,0,0,1,2.12-.74q2,0,2,2.16v3.64h-1V93.17a1.14,1.14,0,0,0-1.29-1.29,2.43,2.43,0,0,0-1.67.73v4.22h-1Zm6.65-.28V95.67a6.17,6.17,0,0,0,2,.33c0.92,0,1.39-.28,1.39-0.83a0.75,0.75,0,0,0-.91-0.78h-0.94A1.56,1.56,0,0,1,176,92.69Q176,91,178.38,91a7.26,7.26,0,0,1,2,.28v0.88a6.13,6.13,0,0,0-2-.33q-1.45,0-1.45.83a0.72,0.72,0,0,0,.86.77h0.94c1.29,0,1.94.57,1.94,1.71s-0.8,1.66-2.41,1.66a7.23,7.23,0,0,1-2-.28h0Zm0,0" transform="translate(-86.43 -84.94)"/><path class="cls-3" d="M134.93,99.66h0.18l0.39,1.58,0.57-1.58h0.13l0.58,1.54,0.39-1.54h0.18l-0.47,1.79H136.7l-0.57-1.53-0.56,1.53h-0.19Z" transform="translate(-86.43 -84.94)"/><path class="cls-3" d="M139.71,100.59h-1.35a0.68,0.68,0,0,0,.83.7,2.26,2.26,0,0,0,.48-0.05v0.15a2.87,2.87,0,0,1-.58.05,0.81,0.81,0,0,1-.91-0.92,0.77,0.77,0,0,1,.86-0.88C139.57,99.66,139.79,100,139.71,100.59Zm-1.35-.16h1.18a0.5,0.5,0,0,0-.55-0.63A0.57,0.57,0,0,0,138.36,100.43Z" transform="translate(-86.43 -84.94)"/><path class="cls-3" d="M140.77,99h0.18v0.73a2.44,2.44,0,0,1,.57-0.09,0.76,0.76,0,0,1,.85.86,0.81,0.81,0,0,1-.89.93,3.21,3.21,0,0,1-.71-0.07V99Zm0.18,2.23a3.12,3.12,0,0,0,.51,0,0.67,0.67,0,0,0,.74-0.79,0.6,0.6,0,0,0-.68-0.68,2.13,2.13,0,0,0-.57.09v1.32Z" transform="translate(-86.43 -84.94)"/><path class="cls-3" d="M143.52,101.24v0.21h-0.23v-0.21h0.23Z" transform="translate(-86.43 -84.94)"/><path class="cls-3" d="M144.52,101.45V99.66h0.13l0,0.23a1.32,1.32,0,0,1,.7-0.23,0.46,0.46,0,0,1,.45.25,1.09,1.09,0,0,1,.66-0.25,0.51,0.51,0,0,1,.57.6v1.2h-0.18v-1.2a0.38,0.38,0,0,0-.42-0.44,0.77,0.77,0,0,0-.56.23v1.4H145.7v-1.23a0.35,0.35,0,0,0-.39-0.41,0.94,0.94,0,0,0-.61.23v1.4h-0.18Z" transform="translate(-86.43 -84.94)"/><path class="cls-3" d="M148.09,100.55a0.86,0.86,0,1,1,.85.9A0.78,0.78,0,0,1,148.09,100.55Zm0.85,0.74a0.63,0.63,0,0,0,.67-0.75,0.68,0.68,0,1,0-1.35,0A0.63,0.63,0,0,0,148.94,101.3Z" transform="translate(-86.43 -84.94)"/><path class="cls-3" d="M150.8,99H151v0.73a2.44,2.44,0,0,1,.57-0.09,0.76,0.76,0,0,1,.85.86,0.81,0.81,0,0,1-.89.93,3.21,3.21,0,0,1-.71-0.07V99Zm0.18,2.23a3.11,3.11,0,0,0,.51,0,0.67,0.67,0,0,0,.74-0.79,0.6,0.6,0,0,0-.68-0.68,2.13,2.13,0,0,0-.57.09v1.32Z" transform="translate(-86.43 -84.94)"/><path class="cls-3" d="M153.58,99v0.17H153.4V99h0.18Zm0,0.65v1.79H153.4V99.66h0.18Z" transform="translate(-86.43 -84.94)"/><path class="cls-3" d="M154.85,99v2.44h-0.18V99h0.18Z" transform="translate(-86.43 -84.94)"/><path class="cls-3" d="M157.38,100.59H156a0.68,0.68,0,0,0,.83.7,2.25,2.25,0,0,0,.48-0.05v0.15a2.86,2.86,0,0,1-.58.05,0.81,0.81,0,0,1-.91-0.92,0.77,0.77,0,0,1,.86-0.88Q157.5,99.66,157.38,100.59Zm-1.34-.16h1.18a0.5,0.5,0,0,0-.55-0.63A0.57,0.57,0,0,0,156,100.43Z" transform="translate(-86.43 -84.94)"/><path class="cls-3" d="M158.58,101.24v0.21h-0.23v-0.21h0.23Z" transform="translate(-86.43 -84.94)"/><path class="cls-3" d="M159.76,99v0.17h-0.18V99h0.18Zm0,0.65v1.79h-0.18V99.66h0.18Z" transform="translate(-86.43 -84.94)"/><path class="cls-3" d="M160.85,101.45V99.66H161l0,0.23a1.77,1.77,0,0,1,.78-0.23,0.51,0.51,0,0,1,.59.57v1.23h-0.18v-1.23a0.38,0.38,0,0,0-.45-0.4,1.4,1.4,0,0,0-.7.23v1.41h-0.18Z" transform="translate(-86.43 -84.94)"/><path class="cls-3" d="M163.45,101.45V99.66h0.13l0,0.23a1.77,1.77,0,0,1,.78-0.23,0.51,0.51,0,0,1,.59.57v1.23h-0.18v-1.23a0.38,0.38,0,0,0-.45-0.4,1.4,1.4,0,0,0-.7.23v1.41h-0.18Z" transform="translate(-86.43 -84.94)"/><path class="cls-3" d="M166,100.55a0.86,0.86,0,1,1,.85.9A0.78,0.78,0,0,1,166,100.55Zm0.85,0.74a0.63,0.63,0,0,0,.67-0.75,0.68,0.68,0,1,0-1.35,0A0.63,0.63,0,0,0,166.82,101.3Z" transform="translate(-86.43 -84.94)"/><path class="cls-3" d="M168.41,99.66h0.21l0.66,1.64,0.66-1.64h0.21l-0.76,1.79h-0.21Z" transform="translate(-86.43 -84.94)"/><path class="cls-3" d="M170.89,100.91q0-.52.76-0.52a5.15,5.15,0,0,1,.57,0v-0.22q0-.39-0.62-0.39a2,2,0,0,0-.57.09V99.74a2,2,0,0,1,.57-0.09q0.8,0,.8.57v1.22h-0.11l-0.06-.13a2,2,0,0,1-.67.13A0.55,0.55,0,0,1,170.89,100.91Zm0.76-.36q-0.58,0-.58.36a0.4,0.4,0,0,0,.5.39,1.67,1.67,0,0,0,.66-0.14v-0.58A4.73,4.73,0,0,0,171.65,100.54Z" transform="translate(-86.43 -84.94)"/><path class="cls-3" d="M173.48,99.37h0.11l0,0.29h0.45v0.15h-0.42v1.13c0,0.24.09,0.35,0.27,0.35h0.15v0.15h-0.15a0.41,0.41,0,0,1-.45-0.48v-1.6Z" transform="translate(-86.43 -84.94)"/><path class="cls-3" d="M175.18,99v0.17H175V99h0.18Zm0,0.65v1.79H175V99.66h0.18Z" transform="translate(-86.43 -84.94)"/><path class="cls-3" d="M176.18,100.55a0.86,0.86,0,1,1,.85.9A0.78,0.78,0,0,1,176.18,100.55ZM177,101.3a0.63,0.63,0,0,0,.67-0.75,0.68,0.68,0,1,0-1.35,0A0.63,0.63,0,0,0,177,101.3Z" transform="translate(-86.43 -84.94)"/><path class="cls-3" d="M178.89,101.45V99.66H179l0,0.23a1.77,1.77,0,0,1,.78-0.23,0.51,0.51,0,0,1,.59.57v1.23h-0.18v-1.23a0.38,0.38,0,0,0-.45-0.4,1.4,1.4,0,0,0-.7.23v1.41h-0.18Z" transform="translate(-86.43 -84.94)"/></svg>